<?xml version="1.0" ?><svg viewBox="0 0 22.485 22.495" xmlns="http://www.w3.org/2000/svg"><g data-name="Layer 2" id="Layer_2"><g data-name="Layer 1" id="Layer_1-2"><path d="M22.154,10h-.688l-3.1-6.914a1.7,1.7,0,1,0-.621.281L20.719,10h-6.3a3.973,3.973,0,1,0-6.347,0h-6.3l2.97-6.633a1.7,1.7,0,1,0-.621-.28L1.029,10C.735,10.03,0,9.847,0,10.339s.694.314.984.34L3.9,22.237a.34.34,0,0,0,.33.258H18.26a.342.342,0,0,0,.331-.258l2.92-11.558h.643A.341.341,0,0,0,22.154,10ZM17.378,2.727a1.023,1.023,0,0,1,0-2.045A1.023,1.023,0,0,1,17.378,2.727ZM4.094,1.7a1.023,1.023,0,0,1,2.045,0A1.023,1.023,0,0,1,4.094,1.7Zm7.153,2.613a3.3,3.3,0,0,1,0,6.59A3.3,3.3,0,0,1,11.247,4.317ZM8.72,10.679a4.009,4.009,0,0,0,5.055,0h1.174l-.414,3.182H7.96l-.414-3.182Zm-7.033,0H6.858l.415,3.182H2.491Zm.976,3.863h4.7l.444,3.408H3.524ZM4.5,21.813l-.8-3.181H7.9l.414,3.181Zm9,0H9l-.414-3.181h5.331Zm-5-3.863-.444-3.408h6.4L14,17.95ZM18,21.813H14.186l.414-3.181h4.2Zm.976-3.863H14.689l.444-3.408h4.7ZM20,13.861H15.222l.415-3.182h5.17ZM9.657,7.271h1.25V6.021a.341.341,0,0,1,.681,0v1.25h1.25a.341.341,0,0,1,0,.682h-1.25V9.2a.341.341,0,1,1-.681,0V7.953H9.657A.341.341,0,0,1,9.657,7.271Z" data-name="add to basket" id="add_to_basket"/></g></g></svg>